<?xml version="1.0" encoding="UTF-8"?>
<svg id="meter-in-empty-svg" width="20" height="200" viewBox="0 0 20 200" fill="none" xmlns="http://www.w3.org/2000/svg" data-fg-cdhn18="10.99:17.68217:/components/FilmstripGenerator.tsx:52:5:2142:830:e:svg"><rect width="20" height="200" fill="#08080a" rx="2" data-fg-cdhn19="10.99:17.68217:/components/FilmstripGenerator.tsx:53:7:2276:61:e:rect"/><rect x="2" y="194.75" width="16" height="4.25" rx="0.5" fill="rgba(255,255,255,0.05)" data-fg-cdhn21="10.99:17.68217:/components/FilmstripGenerator.tsx:61:11:2687:253:e:rect"/><rect x="2" y="188.5" width="16" height="4.25" rx="0.5" fill="rgba(255,255,255,0.05)" data-fg-cdhn21="10.99:17.68217:/components/FilmstripGenerator.tsx:61:11:2687:253:e:rect"/><rect x="2" y="182.25" width="16" height="4.25" rx="0.5" fill="rgba(255,255,255,0.05)" data-fg-cdhn21="10.99:17.68217:/components/FilmstripGenerator.tsx:61:11:2687:253:e:rect"/><rect x="2" y="176" width="16" height="4.25" rx="0.5" fill="rgba(255,255,255,0.05)" data-fg-cdhn21="10.99:17.68217:/components/FilmstripGenerator.tsx:61:11:2687:253:e:rect"/><rect x="2" y="169.75" width="16" height="4.25" rx="0.5" fill="rgba(255,255,255,0.05)" data-fg-cdhn21="10.99:17.68217:/components/FilmstripGenerator.tsx:61:11:2687:253:e:rect"/><rect x="2" y="163.5" width="16" height="4.25" rx="0.5" fill="rgba(255,255,255,0.05)" data-fg-cdhn21="10.99:17.68217:/components/FilmstripGenerator.tsx:61:11:2687:253:e:rect"/><rect x="2" y="157.25" width="16" height="4.25" rx="0.5" fill="rgba(255,255,255,0.05)" data-fg-cdhn21="10.99:17.68217:/components/FilmstripGenerator.tsx:61:11:2687:253:e:rect"/><rect x="2" y="151" width="16" height="4.25" rx="0.5" fill="rgba(255,255,255,0.05)" data-fg-cdhn21="10.99:17.68217:/components/FilmstripGenerator.tsx:61:11:2687:253:e:rect"/><rect x="2" y="144.75" width="16" height="4.25" rx="0.5" fill="rgba(255,255,255,0.05)" data-fg-cdhn21="10.99:17.68217:/components/FilmstripGenerator.tsx:61:11:2687:253:e:rect"/><rect x="2" y="138.5" width="16" height="4.25" rx="0.5" fill="rgba(255,255,255,0.05)" data-fg-cdhn21="10.99:17.68217:/components/FilmstripGenerator.tsx:61:11:2687:253:e:rect"/><rect x="2" y="132.25" width="16" height="4.25" rx="0.5" fill="rgba(255,255,255,0.05)" data-fg-cdhn21="10.99:17.68217:/components/FilmstripGenerator.tsx:61:11:2687:253:e:rect"/><rect x="2" y="126" width="16" height="4.25" rx="0.5" fill="rgba(255,255,255,0.05)" data-fg-cdhn21="10.99:17.68217:/components/FilmstripGenerator.tsx:61:11:2687:253:e:rect"/><rect x="2" y="119.75" width="16" height="4.25" rx="0.5" fill="rgba(255,255,255,0.05)" data-fg-cdhn21="10.99:17.68217:/components/FilmstripGenerator.tsx:61:11:2687:253:e:rect"/><rect x="2" y="113.5" width="16" height="4.25" rx="0.5" fill="rgba(255,255,255,0.05)" data-fg-cdhn21="10.99:17.68217:/components/FilmstripGenerator.tsx:61:11:2687:253:e:rect"/><rect x="2" y="107.25" width="16" height="4.25" rx="0.5" fill="rgba(255,255,255,0.05)" data-fg-cdhn21="10.99:17.68217:/components/FilmstripGenerator.tsx:61:11:2687:253:e:rect"/><rect x="2" y="101" width="16" height="4.25" rx="0.5" fill="rgba(255,255,255,0.05)" data-fg-cdhn21="10.99:17.68217:/components/FilmstripGenerator.tsx:61:11:2687:253:e:rect"/><rect x="2" y="94.75" width="16" height="4.25" rx="0.5" fill="rgba(255,255,255,0.05)" data-fg-cdhn21="10.99:17.68217:/components/FilmstripGenerator.tsx:61:11:2687:253:e:rect"/><rect x="2" y="88.5" width="16" height="4.25" rx="0.5" fill="rgba(255,255,255,0.05)" data-fg-cdhn21="10.99:17.68217:/components/FilmstripGenerator.tsx:61:11:2687:253:e:rect"/><rect x="2" y="82.25" width="16" height="4.25" rx="0.5" fill="rgba(255,255,255,0.05)" data-fg-cdhn21="10.99:17.68217:/components/FilmstripGenerator.tsx:61:11:2687:253:e:rect"/><rect x="2" y="76" width="16" height="4.25" rx="0.5" fill="rgba(255,255,255,0.05)" data-fg-cdhn21="10.99:17.68217:/components/FilmstripGenerator.tsx:61:11:2687:253:e:rect"/><rect x="2" y="69.75" width="16" height="4.25" rx="0.5" fill="rgba(255,255,255,0.05)" data-fg-cdhn21="10.99:17.68217:/components/FilmstripGenerator.tsx:61:11:2687:253:e:rect"/><rect x="2" y="63.5" width="16" height="4.25" rx="0.5" fill="rgba(255,255,255,0.05)" data-fg-cdhn21="10.99:17.68217:/components/FilmstripGenerator.tsx:61:11:2687:253:e:rect"/><rect x="2" y="57.25" width="16" height="4.25" rx="0.5" fill="rgba(255,255,255,0.05)" data-fg-cdhn21="10.99:17.68217:/components/FilmstripGenerator.tsx:61:11:2687:253:e:rect"/><rect x="2" y="51" width="16" height="4.25" rx="0.5" fill="rgba(255,255,255,0.05)" data-fg-cdhn21="10.99:17.68217:/components/FilmstripGenerator.tsx:61:11:2687:253:e:rect"/><rect x="2" y="44.75" width="16" height="4.25" rx="0.5" fill="rgba(255,255,255,0.05)" data-fg-cdhn21="10.99:17.68217:/components/FilmstripGenerator.tsx:61:11:2687:253:e:rect"/><rect x="2" y="38.5" width="16" height="4.25" rx="0.5" fill="rgba(255,255,255,0.05)" data-fg-cdhn21="10.99:17.68217:/components/FilmstripGenerator.tsx:61:11:2687:253:e:rect"/><rect x="2" y="32.25" width="16" height="4.25" rx="0.5" fill="rgba(255,255,255,0.05)" data-fg-cdhn21="10.99:17.68217:/components/FilmstripGenerator.tsx:61:11:2687:253:e:rect"/><rect x="2" y="26" width="16" height="4.25" rx="0.5" fill="rgba(255,255,255,0.05)" data-fg-cdhn21="10.99:17.68217:/components/FilmstripGenerator.tsx:61:11:2687:253:e:rect"/><rect x="2" y="19.75" width="16" height="4.25" rx="0.5" fill="rgba(255,255,255,0.05)" data-fg-cdhn21="10.99:17.68217:/components/FilmstripGenerator.tsx:61:11:2687:253:e:rect"/><rect x="2" y="13.5" width="16" height="4.25" rx="0.5" fill="rgba(255,255,255,0.05)" data-fg-cdhn21="10.99:17.68217:/components/FilmstripGenerator.tsx:61:11:2687:253:e:rect"/><rect x="2" y="7.25" width="16" height="4.25" rx="0.5" fill="rgba(255,255,255,0.05)" data-fg-cdhn21="10.99:17.68217:/components/FilmstripGenerator.tsx:61:11:2687:253:e:rect"/><rect x="2" y="1" width="16" height="4.25" rx="0.5" fill="rgba(255,255,255,0.05)" data-fg-cdhn21="10.99:17.68217:/components/FilmstripGenerator.tsx:61:11:2687:253:e:rect"/></svg>